<svg xmlns="http://www.w3.org/2000/svg" width="378" height="773" fill="none" viewBox="0 0 378 773"><path fill="#000" fill-rule="evenodd" d="M370.487 242.599Z" clip-rule="evenodd"/><path fill="#000" d="M56.144 10.224c13.49-3.24 31.68-2.964 47.535-2.723 4.038.061 7.924.12 11.543.118 5.947-.003 11.904-.045 17.864-.088 13.225-.093 26.467-.187 39.658.145 4.115-.07 8.23-.063 12.344.022 4.94-.251 10.952-.19 16.576-.133 2.229.023 4.397.045 6.413.046l76.041.005c1.07-.001 2.149-.005 3.237-.009 9.757-.035 20.146-.073 29.641 1.704 11.022 2.061 23.023 7.22 31.285 15.07 15.601 14.822 19.519 30.236 20.637 48.938.429 7.168.332 40.912.231 76.372-.126 43.979-.26 90.599.591 92.448.322.21.562.351.747.46.261.154.41.242.519.365.145.163.219.389.392.915l.048.146-.045 1.923c.125.962.204 2.252.251 3.713.023.731.039 1.505.048 2.302.032 2.573.002 5.391-.023 7.799-.014 1.321-.027 2.519-.027 3.485l-.015 55.97c0 .402.003.933.007 1.549l.007 1.115c.014 2.734.012 6.417-.175 8.538-.028.318-.06.601-.097.841a6.303 6.303 0 0 1-.039.223 11.44 11.44 0 0 1-.41.159c-.795.3-1.697.64-1.741 1.456-.128 2.39-.085 5.446-.046 8.248.018 1.283.035 2.513.035 3.602l-.02 318.412c0 3.028.031 6.085.062 9.155.307 30.319.626 61.936-28.986 80.256a68.24 68.24 0 0 1-28.399 9.657c-10.711 1.205-24.72 1.121-36.927 1.048-2.854-.017-5.609-.033-8.201-.033l-151.484-.014c-3.942-.001-7.965.065-12.032.131-31.91.518-66.484 1.079-85.12-29.748C7.018 715.53 7.349 692.578 7.657 671.199c.051-3.524.102-7.006.1-10.417l.074-298.004c.008-2.917-.003-7.544-.049-10.629-.006-.445-1.244-.966-1.698-1.153l-.5-.728.023-8.657c-.283-1.985-.232-5.072-.191-7.591.011-.707.022-1.369.025-1.95.02-4.775-.001-9.553-.023-14.33-.032-7.092-.064-14.183.042-21.268.015-.979.677-1.427 1.375-1.9.13-.088.263-.178.392-.271 1.057-1.808.676-11.824.388-14.219a28.07 28.07 0 0 1-1.903-1.15l-.204-1.6c.202-1.881.109-7.17.039-11.146-.027-1.535-.05-2.874-.053-3.747l-.015-32.321c.052-1.218.057-2.51.06-3.774.002-.479.004-.954.008-1.42.258-.858.809-1.405 1.262-1.855.384-.38.697-.691.706-1.063.01-.457.036-1.234.069-2.238.203-6.24.693-21.245-.29-22.612l-1.638-.185c.093-3.801-.034-8.26-.163-12.815-.19-6.689-.385-13.584.098-18.899l-.085-1.768c.32-.587.875-1.052 1.413-1.504.114-.095.229-.191.34-.287.833-1.84.725-34.564.646-58.405-.037-11.115-.067-20.3.007-23.524.475-20.558 4.364-39.83 19.868-54.557 7.965-7.566 17.73-12.435 28.365-14.988Z"/></svg>