<svg xmlns="http://www.w3.org/2000/svg" width="90" height="24" fill="none" viewBox="0 0 90 24"><g fill="color(display-p3 .1216 .1255 .1451)" clip-path="url(#a)"><path d="M27.238 8.386c.959-1.011 1.774-1.518 3.168-1.806 3.155-.651 6.797 1.143 7.22 4.585-.076 1.993-.073 3.839-.057 5.827.006.682.05 2.985-.083 3.534l-2.987.001-.07-.114-.075.122c-.027-.078-.09-.265-.126-.33-.07-1.865.02-3.803-.002-5.698-.024-1.991.339-4.573-2.563-4.548-3.168.027-2.716 2.838-2.714 5.12l-.001 5.589c-1.18.004-2.361 0-3.541-.011l.007-5.357c.001-2.135.505-5.398-2.557-5.344-3.243.056-2.731 2.99-2.73 5.281l-.002 5.425c-1.186.008-2.371.008-3.557-.001l-.005-5.215c0-1.486-.11-2.99.215-4.444.833-3.723 4.717-5.313 8.146-4.196.958.311 1.61.905 2.314 1.58ZM46.548 6.48c2.824.026 5.122 1.283 6.442 3.817.996 1.91.81 3.676.806 5.757l-.007 4.607c-1.099.026-2.264.004-3.367 0l-.002-1.423c-.805.77-1.352 1.078-2.367 1.47-2.152.527-4.18.206-5.903-1.262a7.333 7.333 0 0 1-2.542-5.053c-.276-3.533 1.772-6.873 5.337-7.709.53-.124 1.061-.163 1.603-.204Zm.536 11.14c4.91-1.212 3.655-8.063-.766-7.8-4.762.918-3.9 8.11.766 7.8ZM6.877 6.48h.044c2.753-.002 5.135 1.363 6.402 3.829.958 1.863.772 3.708.77 5.729l-.006 4.622c-1.115.011-2.23.01-3.345-.003l-.002-1.412c-.85.791-1.323 1.047-2.375 1.466C-.467 22.8-3.396 9.776 4.57 6.887c.767-.279 1.498-.348 2.306-.405Zm.483 11.147c.772-.187 1.261-.336 1.878-.884C11.844 14.43 10.373 9.6 6.645 9.82c-1.044.194-1.839.601-2.452 1.5a4.333 4.333 0 0 0-.674 3.21c.364 1.922 1.872 3.19 3.841 3.097ZM55.936 6.794c3.755-.06 7.789-.018 11.55 0 .004 1.061.02 2.158-.013 3.215-.57.702-2.057 2.174-2.747 2.88-1.429 1.463-2.92 3.119-4.366 4.538 2.411.062 4.947-.016 7.384.018-.017.504.06 2.83-.05 3.181l-.093.04c-3.107.043-6.23-.03-9.34.002-.859.009-1.74.018-2.597-.02.046-.983-.027-2.065.02-3.101 2.355-2.51 4.937-5.008 7.236-7.524-1.684.075-3.408.007-5.096.036-.624.01-1.278.004-1.9-.037-.007-1.076-.002-2.152.012-3.228ZM74.079.169c.351-.072 1.316-.036 1.69-.026l.002 3.192h-.022c-2.564-.009-2.625 1.354-2.628 3.486.505-.036 1.516.009 2.058.016.008 1.148.009 2.296.003 3.444-.543.018-1.533.033-2.05-.013-.086 3.275-.008 6.931-.008 10.235l-.006.063c-.26.226-3.108.095-3.583.09V10.214c-.001-1.86-.113-3.923.175-5.75C70.067 2.207 71.746.43 74.08.17ZM83.955 3.275l3.538.001.01 3.501 2.482.015.002 3.16c-.822.008-1.663.026-2.483.007-.017 1.15-.006 2.306-.01 3.46.027.895-.088 1.778.133 2.655.344 1.368 1.355 1.416 2.52 1.468l.004.833-.006 2.423c-.334.008-.668.014-1.002.016-1.34.005-2.663-.39-3.63-1.353-1.99-1.987-1.568-5.285-1.568-7.88l.01-8.306ZM77.686 6.78c1.074.051 2.508.013 3.612.014l.007 13.863c-.91.069-2.666.01-3.626.002l.007-13.878Z"/><path d="M37.627 11.165c.22.749.133 2.42.158 3.26.057 2.011-.08 4.248 0 6.24-.433.002-3.36.055-3.528-.056-.045-.177-.04-.221-.028-.405.036.065.098.253.126.331l.075-.122.07.114 2.987-.001c.133-.55.088-2.852.083-3.534-.016-1.989-.02-3.834.057-5.827Z"/></g><defs><clipPath id="a"><path fill="#fff" d="M0 0h90v21H0z"/></clipPath></defs></svg>