<svg xmlns="http://www.w3.org/2000/svg" width="112" height="24" fill="none" viewBox="0 0 112 24"><g clip-path="url(#a)"><path fill="color(display-p3 .1216 .1255 .1451)" d="M29.176 6.613c-.185-.372-.683-.687-1.096-.687h-.854c-.413 0-.911.315-1.082.687l-6.746 14.178c-.185.372.015.644.442.644h1.55c.613 0 .897-.287 1.068-.63l.612-1.246c.1-.2.399-.33.811-.33h7.259c.412 0 .683.087.81.33.086.157.456.83.627 1.203.185.372.498.673 1.096.673h2.263c.413 0 .598-.315.455-.616-.17-.3-7.215-14.206-7.215-14.206Zm-4.27 10.425c-.413 0-.612-.314-.441-.687l2.661-5.728c.171-.387.456-.387.64 0l2.59 5.728c.172.387-.028.688-.44.688h-5.01ZM81.28 6.728V20.79c0 .386.342.658.755.658h1.85c.412 0 .754-.272.754-.687V6.699c0-.415-.27-.759-.683-.759h-1.921c-.413-.014-.755.244-.755.788Zm-30.883 8.807c-.242-.344-.114-.73.284-.845 0 0 1.594-.473 2.349-1.174.768-.688 1.138-1.69 1.138-2.979 0-.845-.142-1.561-.441-2.148a3.668 3.668 0 0 0-1.267-1.418c-.512-.358-1.167-.63-1.935-.787-.769-.172-1.794-.215-1.794-.215a53.019 53.019 0 0 0-1.522-.029H39.55a.762.762 0 0 0-.755.759v14.063c0 .415.342.687.755.687h1.807c.413 0 .755-.272.755-.687v-5.599l3.43-.015c.412 0 .953.287 1.195.63l3.558 5.056c.327.443.64.615 1.067.615h2.363c.413 0 .484-.4.342-.601-.114-.215-3.672-5.313-3.672-5.313Zm-1.438-2.864c-.47.114-.996.129-.996.129a53.09 53.09 0 0 1-1.523.028h-3.544a.762.762 0 0 1-.754-.759V9.22c0-.415.342-.759.754-.759h3.544c.413 0 1.096.015 1.523.03 0 0 .527.013.996.128.47.115.84.258 1.11.458.27.2.47.43.584.702.114.272.17.558.17.873 0 .316-.056.602-.17.874a1.58 1.58 0 0 1-.584.688c-.27.2-.64.357-1.11.458Zm54.95-6.745c-.413 0-.754.272-.754.687v8.994c0 .415-.242.515-.527.214L93.689 6.47a1.727 1.727 0 0 0-1.28-.544h-1.68c-.526 0-.754.286-.754.573v14.377c0 .287.27.559.683.559h1.68c.412 0 .711-.23.711-.616l.014-9.48c0-.415.242-.516.527-.215l9.322 9.752c.299.301.655.545 1.295.545h1.267a.762.762 0 0 0 .754-.76V6.686a.762.762 0 0 0-.754-.76h-1.566ZM67.431 14.69c-.199.372-.54.372-.74 0l-4.369-8.077a1.213 1.213 0 0 0-1.096-.687H58.85a.762.762 0 0 0-.754.759v14.034c0 .415.27.702.755.702h1.48c.412 0 .726-.258.726-.673 0-.2 0-10.211.014-10.211s5.465 10.21 5.465 10.21c.199.373.683.373.882 0 0 0 5.494-10.181 5.508-10.181.014 0 .014 9.895.014 10.182 0 .4.328.673.74.673h1.694c.413 0 .754-.215.754-.76V6.7a.762.762 0 0 0-.754-.759h-2.277c-.584 0-.925.3-1.139.659l-4.526 8.09ZM0 13.673c0 7.576 7.7 7.962 9.237 7.962 5.109 0 7.272-1.389 7.358-1.446.313-.186.711-.544.711-1.232v-5.24a.865.865 0 0 0-.868-.874h-6.419c-.484 0-.797.386-.797.873v.544c0 .487.313.874.797.874h3.715c.356 0 .655.3.655.659v2.434c-.74.3-4.07 1.289-6.76.645-3.9-.931-4.2-4.168-4.2-5.142 0-.816.243-4.883 5.025-5.298 3.87-.33 6.418 1.231 6.447 1.26.455.243.925.072 1.181-.415l.484-.988c.2-.401.128-.817-.356-1.16-.042-.029-2.76-1.504-6.96-1.504C.257 5.625 0 12.843 0 13.673Zm109.999 4.54c.968 0 1.751.787 1.751 1.761 0 .974-.783 1.762-1.751 1.762a1.767 1.767 0 0 1-1.764-1.762c0-.974.797-1.761 1.764-1.761Zm0 3.28c.812 0 1.424-.66 1.424-1.504 0-.845-.612-1.504-1.424-1.504-.825 0-1.423.659-1.423 1.504s.612 1.503 1.423 1.503Zm-.668-2.55h.782c.47 0 .712.186.712.587 0 .33-.214.573-.527.573l.584.917h-.356l-.569-.917h-.285v.917h-.341v-2.077Zm.327.888h.398c.257 0 .427-.057.427-.33 0-.243-.213-.3-.427-.3h-.398v.63Z"/></g><defs><clipPath id="a"><path fill="#fff" d="M0 0h111.75v16.125H0z" transform="translate(0 5.625)"/></clipPath></defs></svg>