<svg width="552" height="789" viewBox="0 0 552 789" fill="none" xmlns="http://www.w3.org/2000/svg">
<g filter="url(#filter0_i_21962_16082)">
<path d="M275.917 0C328.186 0 378.316 20.7643 415.276 57.7246C452.236 94.6849 473 144.814 473 197.084V236.5H512.417C522.87 236.5 532.897 240.653 540.289 248.045C547.681 255.437 551.833 265.463 551.833 275.917V581.948C551.912 603.922 545.836 625.479 534.292 644.177C522.749 662.875 506.2 677.966 486.52 687.742L293.576 784.195C288.1 786.935 282.06 788.361 275.937 788.361C269.814 788.361 263.774 786.936 258.297 784.195L65.353 687.742C45.666 677.972 29.1087 662.883 17.5581 644.185C6.00756 625.486 -0.0743618 603.926 0.000488281 581.948V275.917C0.000488281 265.463 4.15335 255.437 11.5454 248.045C18.9374 240.653 28.9628 236.5 39.4165 236.5H78.8335V197.084C78.8335 144.814 99.5978 94.6849 136.558 57.7246C173.518 20.7645 223.647 9.55165e-05 275.917 0ZM360.52 441.971C360.52 483.101 331.805 510.634 287.921 510.634H142.882L173.94 587.416H334.316V587.376C376.556 587.376 410.792 554.136 410.792 511.913C410.792 478.89 389.854 451.752 360.52 441.065V441.971ZM196.961 435.49H331.218C341.146 435.49 351.828 437.506 359.821 441.046C359.33 401.632 327.113 367.86 287.405 367.86H169.017L196.961 435.49ZM275.917 78.834C244.555 78.8341 214.477 91.2918 192.301 113.468C170.125 135.644 157.667 165.722 157.667 197.084V236.5H394.167V197.084C394.167 165.722 381.709 135.644 359.533 113.468C337.357 91.2916 307.278 78.834 275.917 78.834Z" fill="white" fill-opacity="0.01" style="fill:white;fill-opacity:0.01;"/>
<path d="M275.917 0C328.186 0 378.316 20.7643 415.276 57.7246C452.236 94.6849 473 144.814 473 197.084V236.5H512.417C522.87 236.5 532.897 240.653 540.289 248.045C547.681 255.437 551.833 265.463 551.833 275.917V581.948C551.912 603.922 545.836 625.479 534.292 644.177C522.749 662.875 506.2 677.966 486.52 687.742L293.576 784.195C288.1 786.935 282.06 788.361 275.937 788.361C269.814 788.361 263.774 786.936 258.297 784.195L65.353 687.742C45.666 677.972 29.1087 662.883 17.5581 644.185C6.00756 625.486 -0.0743618 603.926 0.000488281 581.948V275.917C0.000488281 265.463 4.15335 255.437 11.5454 248.045C18.9374 240.653 28.9628 236.5 39.4165 236.5H78.8335V197.084C78.8335 144.814 99.5978 94.6849 136.558 57.7246C173.518 20.7645 223.647 9.55165e-05 275.917 0ZM360.52 441.971C360.52 483.101 331.805 510.634 287.921 510.634H142.882L173.94 587.416H334.316V587.376C376.556 587.376 410.792 554.136 410.792 511.913C410.792 478.89 389.854 451.752 360.52 441.065V441.971ZM196.961 435.49H331.218C341.146 435.49 351.828 437.506 359.821 441.046C359.33 401.632 327.113 367.86 287.405 367.86H169.017L196.961 435.49ZM275.917 78.834C244.555 78.8341 214.477 91.2918 192.301 113.468C170.125 135.644 157.667 165.722 157.667 197.084V236.5H394.167V197.084C394.167 165.722 381.709 135.644 359.533 113.468C337.357 91.2916 307.278 78.834 275.917 78.834Z" fill="url(#paint0_radial_21962_16082)"/>
</g>
<defs>
<filter id="filter0_i_21962_16082" x="0" y="0" width="555.53" height="788.361" filterUnits="userSpaceOnUse" color-interpolation-filters="sRGB">
<feFlood flood-opacity="0" result="BackgroundImageFix"/>
<feBlend mode="normal" in="SourceGraphic" in2="BackgroundImageFix" result="shape"/>
<feColorMatrix in="SourceAlpha" type="matrix" values="0 0 0 0 0 0 0 0 0 0 0 0 0 0 0 0 0 0 127 0" result="hardAlpha"/>
<feOffset dx="3.69531"/>
<feGaussianBlur stdDeviation="1.84766"/>
<feComposite in2="hardAlpha" operator="arithmetic" k2="-1" k3="1"/>
<feColorMatrix type="matrix" values="0 0 0 0 1 0 0 0 0 1 0 0 0 0 1 0 0 0 0.25 0"/>
<feBlend mode="normal" in2="shape" result="effect1_innerShadow_21962_16082"/>
</filter>
<radialGradient id="paint0_radial_21962_16082" cx="0" cy="0" r="1" gradientUnits="userSpaceOnUse" gradientTransform="translate(0.612972 458.834) scale(551.387 551.387)">
<stop stop-color="white" stop-opacity="0.1" style="stop-color:white;stop-opacity:0.1;"/>
<stop offset="0.65" stop-color="white" stop-opacity="0" style="stop-color:none;stop-opacity:0;"/>
</radialGradient>
</defs>
</svg>
