<svg xmlns="http://www.w3.org/2000/svg" width="160" height="212" fill="none" viewBox="0 0 160 212"><g clip-path="url(#a)"><rect width="159.596" height="211.101" fill="color(display-p3 .1333 .1647 .2667)" fill-opacity=".2" rx="17.998"/><g fill="#fff" opacity=".9"><path d="M39.4 39.646c-4.408 0-7.484-2.304-7.484-5.58 0-2.49 1.771-4.395 4.342-4.914v-.08c-2.211-.586-3.65-2.224-3.65-4.288 0-2.957 2.824-5.127 6.793-5.127 3.968 0 6.778 2.157 6.778 5.14 0 2.038-1.425 3.662-3.636 4.275v.08c2.57.533 4.355 2.437 4.355 4.914 0 3.29-3.103 5.58-7.498 5.58Zm0-11.666c1.985 0 3.397-1.172 3.397-2.85 0-1.704-1.412-2.877-3.396-2.877-1.998 0-3.396 1.186-3.396 2.877 0 1.678 1.398 2.85 3.395 2.85Zm0 9.043c2.304 0 3.93-1.345 3.93-3.21 0-1.878-1.626-3.21-3.93-3.21-2.303 0-3.928 1.346-3.928 3.21 0 1.865 1.625 3.21 3.928 3.21Zm12.292 2.503c-.972 0-1.665-.626-1.665-1.744v-16.3c0-1.053.626-1.706 1.638-1.706 1.026 0 1.639.653 1.639 1.705v6.086h.066c.76-1.718 2.317-2.69 4.461-2.69 3.117 0 4.941 2.051 4.941 5.287v7.618c0 1.118-.692 1.744-1.664 1.744-.973 0-1.652-.626-1.652-1.744v-6.939c0-1.97-.985-3.156-2.903-3.156-1.998 0-3.21 1.385-3.21 3.463v6.632c0 1.118-.679 1.744-1.651 1.744Zm27.26.12c-3.37 0-5.553-1.371-6.552-3.303a2.77 2.77 0 0 1-.36-1.358c0-.905.573-1.478 1.532-1.478.706 0 1.132.306 1.491 1.012.666 1.452 1.825 2.317 3.929 2.317 2.184 0 3.662-1.252 3.662-2.996.014-2.051-1.478-3.196-3.942-3.196H77.62c-.852 0-1.358-.52-1.358-1.279 0-.759.506-1.278 1.358-1.278h1.012c2.118 0 3.53-1.212 3.53-2.917 0-1.665-1.093-2.783-3.223-2.783-1.812 0-2.864.745-3.503 2.25-.373.826-.746 1.132-1.545 1.132-.959 0-1.465-.559-1.465-1.438 0-.48.094-.905.333-1.372.906-1.904 3.037-3.302 6.166-3.302 3.982 0 6.54 2.077 6.54 5.047 0 2.41-1.719 4.022-4.036 4.501v.067c2.837.266 4.714 1.97 4.714 4.648 0 3.409-2.983 5.726-7.191 5.726Zm17.685 0c-4.741 0-7.564-3.849-7.564-10.015 0-6.139 2.85-9.974 7.564-9.974 4.701 0 7.538 3.808 7.538 9.961 0 6.153-2.81 10.028-7.538 10.028Zm0-2.81c2.597 0 4.075-2.65 4.075-7.205 0-4.5-1.505-7.164-4.075-7.164-2.584 0-4.102 2.676-4.102 7.151 0 4.555 1.492 7.218 4.102 7.218Zm12.238 2.69c-.999 0-1.651-.639-1.651-1.744V26.555c0-1.079.652-1.691 1.585-1.691.932 0 1.598.612 1.598 1.691v1.039h.066c.613-1.638 2.105-2.717 4.022-2.717 1.998 0 3.423 1.026 3.942 2.837h.08c.679-1.745 2.357-2.837 4.395-2.837 2.783 0 4.608 1.878 4.608 4.701v8.204c0 1.105-.666 1.744-1.652 1.744-.998 0-1.664-.639-1.664-1.744V30.39c0-1.732-.906-2.717-2.531-2.717-1.598 0-2.69 1.172-2.69 2.863v7.245c0 1.105-.626 1.744-1.611 1.744-.999 0-1.612-.639-1.612-1.744v-7.565c0-1.571-.958-2.543-2.503-2.543-1.598 0-2.717 1.238-2.717 2.943v7.165c0 1.105-.679 1.744-1.665 1.744ZM35.662 60.439c-2.143 0-3.571-.893-3.988-2.113a1.601 1.601 0 0 1-.104-.55c0-.537.342-.879.848-.879.424 0 .692.171.9.603.335.93 1.258 1.346 2.404 1.346 1.294 0 2.202-.64 2.202-1.532 0-.774-.536-1.25-1.935-1.54l-1.153-.238c-2.15-.44-3.154-1.451-3.154-3.021 0-1.89 1.659-3.17 3.987-3.17 1.898 0 3.37.849 3.81 2.27.044.119.067.26.067.439 0 .468-.335.788-.834.788-.446 0-.721-.193-.922-.61-.365-.907-1.131-1.294-2.136-1.294-1.19 0-2.038.565-2.038 1.465 0 .73.536 1.198 1.875 1.481l1.153.238c2.262.469 3.214 1.376 3.214 2.969 0 2.053-1.614 3.348-4.196 3.348Zm6.74-.03c-.543 0-.93-.35-.93-.975V50.35c0-.625.387-.975.93-.975s.923.35.923.975v9.084c0 .625-.38.975-.923.975Zm6.31.007c-2.412 0-3.833-1.51-3.833-4.07 0-2.514 1.451-4.136 3.728-4.136 2.157 0 3.63 1.533 3.63 3.675 0 .55-.312.878-.862.878h-4.65v.06c0 1.317.766 2.165 1.971 2.165.834 0 1.377-.29 1.972-1.05.193-.215.364-.297.625-.297.416 0 .744.268.744.714 0 .142-.045.305-.127.47-.52 1.003-1.696 1.591-3.199 1.591Zm-1.973-4.873h3.683c-.037-1.146-.766-1.897-1.808-1.897-1.041 0-1.8.766-1.874 1.897Zm10.505 4.873c-2.41 0-3.831-1.51-3.831-4.07 0-2.514 1.45-4.136 3.727-4.136 2.158 0 3.63 1.533 3.63 3.675 0 .55-.312.878-.862.878h-4.65v.06c0 1.317.766 2.165 1.971 2.165.834 0 1.377-.29 1.972-1.05.194-.215.365-.297.625-.297.417 0 .744.268.744.714 0 .142-.045.305-.126.47-.521 1.003-1.697 1.591-3.2 1.591Zm-1.971-4.873h3.683c-.038-1.146-.767-1.897-1.808-1.897-1.042 0-1.8.766-1.875 1.897Zm7.923 7.522c-.543 0-.922-.35-.922-.975v-8.92c0-.61.371-.953.9-.953.528 0 .907.343.907.953v.565h.038c.446-.915 1.339-1.495 2.484-1.495 2.002 0 3.274 1.555 3.274 4.077 0 2.514-1.265 4.07-3.244 4.07-1.145 0-2.038-.551-2.47-1.436h-.037v3.14c0 .624-.387.974-.93.974Zm2.842-4.196c1.198 0 1.942-.99 1.942-2.552 0-1.555-.744-2.552-1.942-2.552-1.153 0-1.92 1.02-1.927 2.552.008 1.547.774 2.552 1.927 2.552Zm9.805 1.517c-.58 0-.93-.357-.93-.967v-9.032c0-.617.38-.99.997-.99.424 0 .685.15.997.574l5 7.075h.067v-6.681c0-.61.35-.967.922-.967.58 0 .923.357.923.967v9.062c0 .61-.35.96-.975.96-.439 0-.692-.142-.997-.573l-5.014-7.083h-.067v6.688c0 .61-.35.968-.923.968Zm13.496.03c-2.41 0-3.831-1.51-3.831-4.07 0-2.514 1.45-4.136 3.727-4.136 2.158 0 3.63 1.533 3.63 3.675 0 .55-.312.878-.862.878h-4.65v.06c0 1.317.766 2.165 1.971 2.165.834 0 1.377-.29 1.972-1.05.193-.215.364-.297.625-.297.416 0 .744.268.744.714 0 .142-.045.305-.127.47-.52 1.003-1.696 1.591-3.199 1.591Zm-1.971-4.873h3.682c-.037-1.146-.766-1.897-1.808-1.897-1.041 0-1.8.766-1.874 1.897Zm10.505 4.873c-2.411 0-3.832-1.51-3.832-4.07 0-2.514 1.45-4.136 3.727-4.136 2.158 0 3.631 1.533 3.631 3.675 0 .55-.312.878-.863.878h-4.65v.06c0 1.317.766 2.165 1.972 2.165.833 0 1.376-.29 1.971-1.05.194-.215.365-.297.625-.297.417 0 .744.268.744.714 0 .142-.045.305-.126.47-.521 1.003-1.697 1.591-3.2 1.591ZM95.9 55.543h3.683c-.038-1.146-.767-1.897-1.808-1.897-1.042 0-1.8.766-1.875 1.897Zm9.947 4.843c-1.987 0-3.274-1.57-3.274-4.077 0-2.492 1.287-4.07 3.274-4.07 1.131 0 2.023.589 2.44 1.459h.045V50.35c0-.625.379-.975.922-.975s.93.35.93.975v9.129c0 .595-.379.93-.915.93s-.937-.328-.937-.93v-.618h-.037c-.38.908-1.228 1.526-2.448 1.526Zm.558-1.517c1.168 0 1.934-.99 1.934-2.552 0-1.548-.766-2.552-1.934-2.552-1.191 0-1.935.99-1.935 2.552 0 1.57.737 2.552 1.935 2.552Zm9.143 1.547c-2.41 0-3.831-1.51-3.831-4.07 0-2.514 1.45-4.136 3.727-4.136 2.158 0 3.631 1.533 3.631 3.675 0 .55-.313.878-.863.878h-4.65v.06c0 1.317.766 2.165 1.971 2.165.834 0 1.377-.29 1.972-1.05.193-.215.364-.297.625-.297.416 0 .744.268.744.714 0 .142-.045.305-.127.47-.52 1.003-1.696 1.591-3.199 1.591Zm-1.971-4.873h3.682c-.037-1.146-.766-1.897-1.808-1.897-1.041 0-1.8.766-1.874 1.897Zm9.947 4.843c-1.987 0-3.274-1.57-3.274-4.077 0-2.492 1.287-4.07 3.274-4.07 1.13 0 2.023.589 2.44 1.459h.044V50.35c0-.625.38-.975.923-.975s.93.35.93.975v9.129c0 .595-.379.93-.915.93s-.938-.328-.938-.93v-.618h-.037c-.379.908-1.227 1.526-2.447 1.526Zm.558-1.517c1.168 0 1.934-.99 1.934-2.552 0-1.548-.766-2.552-1.934-2.552-1.191 0-1.935.99-1.935 2.552 0 1.57.737 2.552 1.935 2.552Z"/></g><g filter="url(#b)" opacity=".6"><path fill="color(display-p3 .1059 .1333 .2235)" fill-opacity=".36" d="M141.22 137.681c0 33.922-27.5 61.421-61.422 61.421s-61.422-27.499-61.422-61.421c0-33.923 27.5-61.422 61.422-61.422s61.422 27.499 61.422 61.422Z" shape-rendering="crispEdges"/></g><g filter="url(#c)"><path fill="color(display-p3 .6208 .7233 1)" d="M68.983 89.993c-1.227-5.414 2.179-10.89 7.722-11.18a58.95 58.95 0 0 1 57.563 81.388c-2.12 5.13-8.417 6.518-13.113 3.557-4.696-2.96-5.956-9.16-4.295-14.457a38.845 38.845 0 0 0-35.677-50.442c-5.547-.2-10.973-3.453-12.2-8.866Z"/></g><path fill="#fff" fill-opacity=".4" d="m126.102 146.317 5.14.976 2.57.488c-.037.197-.076.395-.116.592l-10.255-2.067c.032-.158.063-.317.093-.476l2.568.487Zm8.266-2.11c-.049.399-.102.797-.16 1.195l-2.588-.374-7.766-1.118c.046-.321.089-.642.128-.964l10.386 1.261Zm.315-3.604c-.022.402-.047.803-.078 1.204l-10.432-.797c.025-.324.046-.647.064-.971l10.446.564Zm.076-2.41-2.616-.025.001.001-5.23-.05-.001-.001-2.614-.024c.003-.324.003-.649-.002-.973l10.46-.134c.005.402.006.804.002 1.206Zm-.086-3.616-2.612.149.001.001-5.222.3-.001-.001-2.61.151a52.154 52.154 0 0 0-.066-.971l10.427-.832c.032.4.06.802.083 1.203Zm-.328-3.602-7.785.972-.001-.001-2.595.324a39.8 39.8 0 0 0-.131-.964l10.349-1.526c.059.398.113.797.163 1.195Zm-.685-4.164c.04.197.08.395.118.592l-7.703 1.489-.001-.001-2.568.497c-.03-.159-.062-.318-.094-.477l-.101-.476 10.225-2.214.124.59Zm-.687-2.935-10.116 2.668a43.423 43.423 0 0 0-.258-.939l10.054-2.891c.111.386.218.773.32 1.162Zm-1.039-3.464-7.435 2.502-.001-.001-2.479.835c-.103-.307-.21-.613-.32-.918l9.838-3.557c.136.378.269.758.397 1.139Zm-1.267-3.388-7.252 2.993-.001-.001-2.417.998a49.94 49.94 0 0 0-.381-.894l9.578-4.206c.161.368.319.739.473 1.11Zm-1.491-3.296-9.382 4.628c-.143-.291-.29-.58-.44-.868l9.276-4.835c.186.357.369.715.546 1.075Zm-1.708-3.188-9.051 5.244c-.163-.281-.329-.56-.498-.837l8.933-5.444c.209.343.415.689.616 1.037Zm-2.256-3.567c.114.166.227.333.339.499l-6.51 4.377-.001-.001-2.17 1.46c-.091-.134-.182-.269-.274-.402a56.42 56.42 0 0 0-.278-.398l8.55-6.029.344.494Zm-1.778-2.433-8.272 6.402a49.3 49.3 0 0 0-.604-.763l8.128-6.585c.253.313.502.628.748.946Zm-2.308-2.785-5.87 5.206-.001-.001-1.956 1.736a44.663 44.663 0 0 0-.653-.721l7.67-7.114c.273.295.544.593.81.894Zm-2.489-2.625-7.345 7.449a44.716 44.716 0 0 0-.701-.676l7.178-7.61c.292.275.582.554.868.837Zm-2.659-2.453-6.832 7.923a55.966 55.966 0 0 0-.743-.628l6.653-8.072c.31.256.618.515.922.777Zm-2.816-2.269-6.288 8.361c-.259-.194-.52-.387-.784-.576l6.1-8.499c.327.234.651.472.972.714Zm-3.469-2.402c.169.108.338.216.507.326l-5.716 8.762c-.136-.089-.272-.176-.408-.263a93.551 93.551 0 0 0-.412-.26l5.518-8.887c.171.106.341.214.511.322Zm-2.587-1.548-3.838 6.844-.001-.002-1.279 2.282a44.161 44.161 0 0 0-.854-.466l4.913-9.236c.355.188.708.381 1.059.578Zm-3.212-1.663-1.125 2.36.001.001-3.373 7.084a43.75 43.75 0 0 0-.883-.408l4.285-9.543c.367.165.732.333 1.095.506Zm-3.316-1.445-3.857 9.725c-.301-.12-.604-.236-.908-.349l3.64-9.808c.376.14.751.284 1.125.432Zm-3.405-1.22-3.199 9.96c-.308-.1-.618-.195-.929-.288l2.976-10.028c.385.114.77.233 1.152.356Zm-3.48-.99-2.525 10.15c-.315-.078-.63-.153-.947-.224l2.3-10.205a53.7 53.7 0 0 1 1.173.278Zm-3.536-.757-1.843 10.298-.48-.083.865-5.159.011-.07.853-5.088.594.102Z"/><rect width="72.778" height="72.778" x="43.412" y="101.291" fill="color(display-p3 .3262 .3859 .58)" fill-opacity=".29" rx="36.389"/><rect width="72.778" height="72.778" x="43.412" y="101.291" fill="url(#d)" rx="36.389"/><rect width="72.778" height="72.778" x="43.412" y="101.291" fill="url(#e)" fill-opacity=".08" rx="36.389"/><path stroke="color(display-p3 .8902 .8941 .9059)" stroke-dasharray="1.57 3.14" stroke-opacity=".26" stroke-width="1.046" d="M90.306 107.47a31.983 31.983 0 0 1 21.426 28.354 31.969 31.969 0 0 1-8.039 23.122 31.982 31.982 0 0 1-34.395 8.945 31.987 31.987 0 0 1-21.427-28.354 31.98 31.98 0 0 1 8.04-23.122 31.993 31.993 0 0 1 22.034-10.665 32.007 32.007 0 0 1 12.361 1.72Z"/><path fill="color(display-p3 .5137 .8902 .8706)" d="m81.28 113.923 1.188-.501.437-1.273a.229.229 0 0 1 .23-.182c.083 0 .187.068.208.182l.459 1.273 1.167.501c.105.022.167.136.167.227 0 .114-.063.228-.167.25l-1.167.478-.459 1.296c-.02.091-.125.159-.208.159-.105 0-.209-.068-.23-.159l-.438-1.296-1.188-.478c-.083-.022-.146-.136-.146-.25 0-.091.063-.205.146-.227Zm-2.544-.273 1.084 2.592 2.377 1.183a.401.401 0 0 1 .208.341.342.342 0 0 1-.209.319l-2.376 1.205-1.084 2.593c-.063.136-.188.227-.313.227a.317.317 0 0 1-.292-.227l-1.105-2.593-2.376-1.183a.38.38 0 0 1-.188-.341c0-.136.063-.273.188-.341l2.376-1.183 1.105-2.592a.317.317 0 0 1 .292-.228c.125 0 .25.091.313.228Zm3.731 7.05.438-1.273a.229.229 0 0 1 .23-.182c.083 0 .187.068.208.182l.459 1.273 1.167.5c.105.023.167.137.167.228 0 .114-.063.227-.167.25l-1.167.478-.459 1.296c-.02.091-.125.159-.208.159-.105 0-.209-.068-.23-.159l-.438-1.296-1.188-.478c-.083-.023-.146-.136-.146-.25 0-.091.063-.205.146-.228l1.189-.5Z"/><path fill="color(display-p3 1 .8392 0)" d="M79.01 152.751v-1.183c0-.418.345-.788.788-.788a.81.81 0 0 1 .789.788v1.183c0 .444-.37.789-.789.789a.778.778 0 0 1-.788-.789Zm-1.577 4.336c0-.837.443-1.601 1.182-2.045a2.387 2.387 0 0 1 2.366 0c.714.444 1.182 1.208 1.182 2.045 0 .863-.468 1.627-1.182 2.07-.74.419-1.651.419-2.365 0a2.388 2.388 0 0 1-1.183-2.07Zm-3.942 0c0-.418.345-.788.788-.788h1.183a.81.81 0 0 1 .788.788c0 .444-.37.789-.788.789h-1.183a.779.779 0 0 1-.788-.789Zm10.644-.788h1.182a.81.81 0 0 1 .789.788c0 .444-.37.789-.789.789h-1.182a.778.778 0 0 1-.789-.789c0-.418.345-.788.788-.788Zm-4.337 7.096a.778.778 0 0 1-.788-.789v-1.182c0-.419.345-.789.788-.789.419 0 .789.37.789.789v1.182c0 .444-.37.789-.789.789Zm-4.509-1.799a.759.759 0 0 1 0-1.108l.789-.789a.76.76 0 0 1 1.108 0 .76.76 0 0 1 0 1.109l-.788.788a.759.759 0 0 1-1.109 0Zm7.096-8.204.789-.789a.76.76 0 0 1 1.108 0 .76.76 0 0 1 0 1.109l-.788.788a.759.759 0 0 1-1.109 0 .759.759 0 0 1 0-1.108Zm1.897 8.204a.759.759 0 0 1-1.108 0l-.789-.788a.76.76 0 0 1 0-1.109.76.76 0 0 1 1.109 0l.788.789c.32.295.32.813 0 1.108Zm-8.204-7.096-.789-.788a.76.76 0 0 1 0-1.109.76.76 0 0 1 1.109 0l.788.789c.32.295.32.813 0 1.108a.759.759 0 0 1-1.108 0Z"/><path fill="#fff" d="M75.63 84.928c0-.478.387-.883.884-.883h6.478c.478 0 .883.404.883.883v2.392a2.537 2.537 0 0 0-.883-.312V86.4a.606.606 0 0 0-.59-.589h-1.766a.593.593 0 0 0-.589.59v.588h-.589V86.4a.605.605 0 0 0-.589-.589h-1.766a.593.593 0 0 0-.59.59v.607c-.33.055-.625.147-.883.312v-2.392Zm-.588 4.417c0-.976.79-1.767 1.766-1.767h5.89c.975 0 1.766.791 1.766 1.767V91.7a.593.593 0 0 1-.59.59.581.581 0 0 1-.588-.59v-.589h-7.067v.59a.593.593 0 0 1-.589.588.581.581 0 0 1-.588-.589v-2.355ZM124.665 151.65l-2.347 1.945a1.618 1.618 0 0 1-.225-.82 1.53 1.53 0 0 1 1.527-1.543c.402 0 .771.161 1.045.418Zm1.542 7.811v.016a3.629 3.629 0 0 1-2.169-.724l-.563.563a.495.495 0 0 1-.723 0 .495.495 0 0 1 0-.723l.563-.563a3.613 3.613 0 0 1-.707-2.169c0-1.977 1.607-3.6 3.599-3.6 1.977 0 3.6 1.623 3.6 3.6 0 .819-.273 1.559-.723 2.169l.563.563a.495.495 0 0 1 0 .723.495.495 0 0 1-.723 0l-.563-.563c-.611.45-1.35.708-2.154.708Zm3.874-5.866-2.331-1.945a1.49 1.49 0 0 1 1.029-.418c.852 0 1.543.691 1.543 1.543 0 .289-.097.579-.241.82Zm-3.488.594a.39.39 0 0 0-.386-.385.38.38 0 0 0-.385.385v1.672c0 .112.032.209.112.273l.772.771c.144.161.385.161.546 0a.377.377 0 0 0 0-.53l-.659-.659v-1.527Z"/></g><defs><filter id="b" width="153.135" height="153.135" x="3.652" y="60.691" color-interpolation-filters="sRGB" filterUnits="userSpaceOnUse"><feFlood flood-opacity="0" result="BackgroundImageFix"/><feColorMatrix in="SourceAlpha" result="hardAlpha" values="0 0 0 0 0 0 0 0 0 0 0 0 0 0 0 0 0 0 127 0"/><feOffset dx="-.844" dy=".844"/><feGaussianBlur stdDeviation="2.616"/><feComposite in2="hardAlpha" operator="out"/><feColorMatrix values="0 0 0 0 0.870882 0 0 0 0 0.883791 0 0 0 0 1 0 0 0 0.3 0"/><feBlend in2="BackgroundImageFix" result="effect1_dropShadow_22059_15640"/><feColorMatrix in="SourceAlpha" result="hardAlpha" values="0 0 0 0 0 0 0 0 0 0 0 0 0 0 0 0 0 0 127 0"/><feOffset dx=".422" dy="-.422"/><feGaussianBlur stdDeviation="7.573"/><feComposite in2="hardAlpha" operator="out"/><feColorMatrix values="0 0 0 0 0 0 0 0 0 0 0 0 0 0 0 0 0 0 0.8 0"/><feBlend in2="effect1_dropShadow_22059_15640" result="effect2_dropShadow_22059_15640"/><feBlend in="SourceGraphic" in2="effect2_dropShadow_22059_15640" result="shape"/><feColorMatrix in="SourceAlpha" result="hardAlpha" values="0 0 0 0 0 0 0 0 0 0 0 0 0 0 0 0 0 0 127 0"/><feOffset/><feGaussianBlur stdDeviation="4.43"/><feComposite in2="hardAlpha" k2="-1" k3="1" operator="arithmetic"/><feColorMatrix values="0 0 0 0 0.00550553 0 0 0 0 0.00630272 0 0 0 0 0.0105544 0 0 0 0.58 0"/><feBlend in2="shape" result="effect3_innerShadow_22059_15640"/><feColorMatrix in="SourceAlpha" result="hardAlpha" values="0 0 0 0 0 0 0 0 0 0 0 0 0 0 0 0 0 0 127 0"/><feOffset dy=".422"/><feGaussianBlur stdDeviation="9.071"/><feComposite in2="hardAlpha" k2="-1" k3="1" operator="arithmetic"/><feColorMatrix values="0 0 0 0 0 0 0 0 0 0 0 0 0 0 0 0 0 0 0.39 0"/><feBlend in2="effect3_innerShadow_22059_15640" result="effect4_innerShadow_22059_15640"/></filter><filter id="c" width="101.391" height="117.946" x="53.041" y="65.133" color-interpolation-filters="sRGB" filterUnits="userSpaceOnUse"><feFlood flood-opacity="0" result="BackgroundImageFix"/><feColorMatrix in="SourceAlpha" result="hardAlpha" values="0 0 0 0 0 0 0 0 0 0 0 0 0 0 0 0 0 0 127 0"/><feOffset dy="2.092"/><feGaussianBlur stdDeviation="7.846"/><feComposite in2="hardAlpha" operator="out"/><feColorMatrix values="0 0 0 0 0.279167 0 0 0 0 0.279167 0 0 0 0 0.279167 0 0 0 0.1 0"/><feBlend in2="BackgroundImageFix" result="effect1_dropShadow_22059_15640"/><feBlend in="SourceGraphic" in2="effect1_dropShadow_22059_15640" result="shape"/></filter><radialGradient id="e" cx="0" cy="0" r="1" gradientTransform="rotate(-90 124.22 44.418) scale(44.7605)" gradientUnits="userSpaceOnUse"><stop stop-color="color(display-p3 .6745 .7882 .9882)"/><stop offset="1" stop-color="none" stop-opacity="0"/></radialGradient><linearGradient id="d" x1="79.801" x2="79.801" y1="101.291" y2="174.069" gradientUnits="userSpaceOnUse"><stop stop-color="color(display-p3 .1843 .2196 .3412)"/><stop offset="1" stop-color="none" stop-opacity="0"/></linearGradient><clipPath id="a"><rect width="159.596" height="211.101" fill="#fff" rx="17.998"/></clipPath></defs></svg>