<svg xmlns="http://www.w3.org/2000/svg" width="60" height="24" fill="none" viewBox="0 0 60 24"><g clip-path="url(#a)"><path fill="color(display-p3 .1216 .1255 .1451)" d="M3.789 4.63h7.58V3h-7.58v1.63Zm34.636 8.735h-5.302V7.946h5.302c1.89 0 3.159 1.09 3.159 2.71 0 1.62-1.27 2.709-3.159 2.709m1.756 1.267c1.82-.517 2.994-2.078 2.994-3.976 0-2.465-1.909-4.12-4.75-4.12h-6.893V21.1h1.591v-6.303h5.393L41.95 21.1h1.721l-3.58-6.442.09-.026ZM23.27 21.375c3.902 0 6.627-2.733 6.627-6.646V6.535h-1.635v8.085c0 3.017-2.053 5.125-4.992 5.125-2.437 0-5.059-1.604-5.059-5.126V6.536h-1.635v8.194c0 3.913 2.752 6.646 6.694 6.646m28.555-12.94 3.45 7.521h-6.92l3.47-7.52Zm-.767-1.9-6.68 14.566h1.709l1.652-3.734h8.15l1.653 3.734h1.708L52.57 6.535h-1.512ZM7.58 6.261C3.4 6.26 0 9.65 0 13.818s3.4 7.557 7.58 7.557 7.58-3.39 7.58-7.557-3.4-7.557-7.58-7.557Zm0 13.483c-3.278 0-5.945-2.658-5.945-5.926 0-3.268 2.667-5.927 5.945-5.927 3.278 0 5.945 2.659 5.945 5.927s-2.667 5.926-5.945 5.926"/></g><defs><clipPath id="a"><path fill="#fff" d="M0 0h59.25v18.375H0z" transform="translate(0 3)"/></clipPath></defs></svg>