<svg xmlns="http://www.w3.org/2000/svg" width="88" height="24" fill="none" viewBox="0 0 88 24"><path fill="color(display-p3 .1216 .1255 .1451)" d="M27.365 20.822 23.275 5.37h3.351l2.441 11.072h.065L31.98 5.37h2.838l2.848 11.072h.064L40.182 5.37h3.352l-4.101 15.452h-3.16l-2.837-10.355h-.064l-2.848 10.355h-3.16ZM47.41 21.004c-2.302 0-3.855-1.446-3.855-3.47v-.021c0-2.088 1.617-3.309 4.465-3.49l2.838-.172v-.707c0-1.017-.664-1.649-1.885-1.649-1.167 0-1.874.546-2.024 1.285l-.021.096h-2.86l.012-.128c.171-2.12 1.991-3.64 5.022-3.64 2.966 0 4.883 1.53 4.883 3.843v7.87h-3.127v-1.713h-.064c-.654 1.178-1.874 1.896-3.384 1.896Zm-.76-3.63c0 .846.696 1.349 1.777 1.349 1.403 0 2.43-.9 2.43-2.099V15.8l-2.366.15c-1.21.075-1.841.589-1.841 1.402v.022ZM61.008 21.057c-2.548 0-3.747-.985-3.747-3.448V11.7h-1.596V9.342h1.596V6.537h3.159v2.806h2.098v2.355H60.42v5.569c0 1.07.481 1.435 1.424 1.435.278 0 .482-.033.674-.054v2.291a9.764 9.764 0 0 1-1.51.118ZM69.757 21.057c-3.502 0-5.665-2.28-5.665-5.985v-.011c0-3.673 2.195-5.954 5.632-5.954 3.117 0 5.097 1.917 5.215 4.401v.075h-2.902l-.021-.096c-.193-1.092-.953-1.928-2.249-1.928-1.531 0-2.495 1.317-2.495 3.513v.01c0 2.249.964 3.523 2.506 3.523 1.253 0 2.034-.77 2.249-1.927l.01-.097h2.913v.065c-.15 2.505-2.131 4.411-5.193 4.411ZM76.973 20.822V5.37H80.1v5.954h.064c.59-1.424 1.8-2.217 3.523-2.217 2.484 0 4.026 1.735 4.026 4.508v7.207h-3.126v-6.564c0-1.606-.793-2.56-2.217-2.56-1.381 0-2.27 1.05-2.27 2.549v6.575h-3.127ZM11.312 3.259c-.69.835-1.845 1.454-2.763 1.454-.114 0-.217-.021-.279-.031-.01-.052-.04-.207-.04-.372 0-1.051.535-2.103 1.123-2.763.732-.866 1.97-1.506 3-1.547.021.113.032.258.032.402 0 1.052-.444 2.094-1.073 2.857Zm.722 1.67c.578 0 2.671.062 4.043 2.032-.124.092-2.197 1.268-2.197 3.887 0 3.022 2.64 4.104 2.722 4.125-.01.072-.422 1.464-1.392 2.898-.876 1.248-1.794 2.516-3.176 2.516-1.392 0-1.753-.815-3.34-.815-1.568 0-2.125.815-3.383.815-1.279 0-2.166-1.145-3.176-2.568C.949 16.14 0 13.53 0 11.055c0-3.96 2.578-6.126 5.125-6.126 1.34 0 2.454.939 3.31.939.805 0 2.063-.939 3.6-.939Z"/></svg>