<svg xmlns="http://www.w3.org/2000/svg" viewBox="0 0 24 24" fill="#DE5833" width="100" height="100">
  <path d="M12 2c-5.52 0-10 4.48-10 10s4.48 10 10 10 10-4.48 10-10-4.48-10-10-10zm4 11h-8v-2h8v2z" fill="#DE5833"/>
  <path d="M12 3a9 9 0 0 0-9 9c0 2.24.82 4.29 2.17 5.87l1.45-1.45C5.83 15.22 5.3 13.68 5.3 12c0-3.7 3-6.7 6.7-6.7s6.7 3 6.7 6.7c0 1.68-.53 3.22-1.32 4.42l1.45 1.45A8.95 8.95 0 0 0 21 12a9 9 0 0 0-9-9zM12 7c-2.76 0-5 2.24-5 5s2.24 5 5 5 5-2.24 5-5-2.24-5-5-5zm0 2c1.66 0 3 1.34 3 3s-1.34 3-3 3-3-1.34-3-3 1.34-3 3-3z" fill="#FFF"/>
</svg>