<svg xmlns="http://www.w3.org/2000/svg" viewBox="0 0 100 100">
        <path d="M50 30 C45 30 40 33 38 38 L30 38 C30 30 38 22 48 22 C55 22 62 26 66 32 L58 37 C56 33 53 30 50 30 Z" fill="#10a37f"/>
        <path d="M62 42 C59 39 55 38 51 40 L47 33 C53 30 61 31 66 37 C70 42 70 50 66 55 L59 50 C61 48 62 45 62 42 Z" fill="#10a37f"/>
        <path d="M57 58 C53 60 48 59 45 55 L38 59 C42 66 50 68 57 65 C63 62 66 55 65 48 L58 50 C58 53 58 56 57 58 Z" fill="#10a37f"/>
        <path d="M41 57 C39 54 40 49 43 46 L37 41 C31 45 30 53 33 60 C36 66 43 69 49 67 L47 59 C45 60 43 59 41 57 Z" fill="#10a37f"/>
        <path d="M38 43 C40 40 44 39 48 41 L50 33 C44 31 36 33 32 39 C28 44 29 52 33 57 L40 53 C38 50 37 46 38 43 Z" fill="#10a37f"/>
        <path d="M49 46 C52 44 56 46 58 49 L64 44 C60 38 52 36 45 39 C39 42 36 49 38 56 L45 53 C44 51 46 48 49 46 Z" fill="#10a37f"/>
    </svg>