<svg xmlns="http://www.w3.org/2000/svg" viewBox="0 0 100 100">
        <circle cx="50" cy="50" r="50" fill="#25D366"/>
        <path d="M50 25 C36 25 25 36 25 50 C25 55 26 60 29 64 L26 74 L37 71 C41 73 45 75 50 75 C64 75 75 64 75 50 C75 36 64 25 50 25 M43 40 C44 40 45 42 46 43 C47 44 48 47 46 48 C45 49 44 50 43 51 C45 54 48 57 51 59 C52 58 53 57 54 56 C55 55 57 56 58 56 C59 57 62 59 62 60 C62 61 61 62 60 63 C58 64 56 64 52 62 C46 59 41 53 39 48 C38 44 39 42 41 41 Z" fill="#FFFFFF"/>
    </svg>