<svg xmlns="http://www.w3.org/2000/svg" viewBox="0 0 100 100">
        <circle cx="50" cy="50" r="50" fill="#24292e"/>
        <path d="M50 18 C31 18 16 33 16 52 C16 67 26 80 40 85 C42 85 42 84 42 83 C42 82 42 79 42 76 C33 78 31 72 31 72 C29 68 26 67 26 67 C23 65 26 65 26 65 C29 65 31 68 31 68 C34 73 39 71 41 70 C41 68 42 66 43 65 C35 64 27 61 27 47 C27 43 29 40 31 37 C31 36 30 32 32 27 C32 27 35 26 42 31 C45 30 48 30 51 30 C54 30 57 30 60 31 C67 26 70 27 70 27 C72 32 71 36 71 37 C73 40 75 43 75 47 C75 61 67 64 59 65 C60 66 61 69 61 73 C61 78 61 82 61 83 C61 84 62 85 64 85 C77 80 87 67 87 52 C87 33 72 18 50 18 Z" fill="#FFFFFF"/>
    </svg>