<svg xmlns="http://www.w3.org/2000/svg" viewBox="0 0 100 100">
        <path d="M72 30 C66 27 60 26 53 25 L52 27 C59 28 65 31 71 35 C63 31 54 29 45 29 C38 29 31 31 24 35 C30 31 36 28 43 27 L42 25 C35 26 29 27 23 30 C13 45 11 61 15 76 C22 80 30 83 38 84 L40 78 C34 77 29 74 24 70 C29 72 34 74 39 75 C45 76 50 76 56 75 C61 74 66 72 71 70 C66 74 61 77 55 78 L57 84 C65 83 73 80 80 76 C84 61 82 45 72 30 M33 58 C29 58 26 55 26 50 C26 45 29 42 33 42 C37 42 40 45 40 50 C40 55 37 58 33 58 M57 58 C53 58 50 55 50 50 C50 45 53 42 57 42 C61 42 64 45 64 50 C64 55 61 58 57 58 Z" fill="#5865F2"/>
    </svg>