<svg xmlns="http://www.w3.org/2000/svg" viewBox="0 0 100 100">
        <path d="M50 10 C28 10 10 28 10 50 C10 68 22 83 38 88 C40 88 40 87 40 86 C40 85 40 82 40 79 C30 81 28 75 28 75 C26 71 23 70 23 70 C20 68 23 68 23 68 C26 68 28 71 28 71 C31 76 36 74 38 73 C38 71 39 69 40 68 C32 67 24 64 24 50 C24 46 26 43 28 40 C28 39 27 35 29 30 C29 30 32 29 39 34 C42 33 45 33 48 33 C51 33 54 33 57 34 C64 29 67 30 67 30 C69 35 68 39 68 40 C70 43 72 46 72 50 C72 64 64 67 56 68 C57 69 58 72 58 76 C58 81 58 85 58 86 C58 87 59 88 61 88 C77 83 89 68 89 50 C89 28 71 10 50 10 Z" fill="#24292e"/>
    </svg>