<svg xmlns="http://www.w3.org/2000/svg" viewBox="0 0 100 100">
        <circle cx="50" cy="50" r="50" fill="#5865F2"/>
        <path d="M69 35 C64 32 58 31 52 30 L51 32 C57 33 63 36 68 40 C61 36 53 34 45 34 C39 34 33 36 27 40 C32 36 38 33 44 32 L43 30 C37 31 31 32 26 35 C17 48 15 62 19 75 C25 79 32 81 39 82 L41 77 C36 76 31 73 27 70 C31 72 35 74 40 75 C45 76 50 76 55 75 C60 74 64 72 68 70 C64 73 59 76 54 77 L56 82 C63 81 70 79 76 75 C80 62 78 48 69 35 M36 60 C32 60 29 57 29 53 C29 49 32 46 36 46 C40 46 43 49 43 53 C43 57 40 60 36 60 M59 60 C55 60 52 57 52 53 C52 49 55 46 59 46 C63 46 66 49 66 53 C66 57 63 60 59 60 Z" fill="#FFFFFF"/>
    </svg>